<svg width="24" height="24" viewBox="0 0 24 24" fill="none" xmlns="http://www.w3.org/2000/svg">
<path d="M8.3999 4.2C8.3999 3.72261 8.58954 3.26477 8.92711 2.92721C9.26468 2.58964 9.72251 2.4 10.1999 2.4H14.8547C15.3319 2.40042 15.7895 2.59034 16.1267 2.928L19.8731 6.672C20.0404 6.83937 20.173 7.03808 20.2634 7.25675C20.3538 7.47543 20.4002 7.70978 20.3999 7.9464V15C20.3999 15.4774 20.2103 15.9352 19.8727 16.2728C19.5351 16.6104 19.0773 16.8 18.5999 16.8H17.3999V12.7452C17.3997 11.7905 17.0203 10.875 16.3451 10.2L12.5999 6.4548C11.9249 5.77962 11.0094 5.40021 10.0547 5.4H8.3999V4.2Z" fill="#292929"/>
<path d="M5.4001 7.2C4.92271 7.2 4.46487 7.38964 4.12731 7.72721C3.78974 8.06477 3.6001 8.52261 3.6001 9V19.8C3.6001 20.2774 3.78974 20.7352 4.12731 21.0728C4.46487 21.4104 4.92271 21.6 5.4001 21.6H13.8001C14.2775 21.6 14.7353 21.4104 15.0729 21.0728C15.4105 20.7352 15.6001 20.2774 15.6001 19.8V12.7452C15.5997 12.268 15.4098 11.8104 15.0721 11.4732L11.3281 7.7268C11.1607 7.55953 10.962 7.42691 10.7433 7.33652C10.5247 7.24612 10.2903 7.19973 10.0537 7.2H5.4001Z" fill="#292929"/>
</svg>
