<svg width="24" height="24" viewBox="0 0 24 24" fill="none" xmlns="http://www.w3.org/2000/svg">
<path fill-rule="evenodd" clip-rule="evenodd" d="M15.1032 5.5032C15.3246 5.27398 15.5895 5.09114 15.8823 4.96536C16.1751 4.83958 16.49 4.77337 16.8087 4.7706C17.1274 4.76783 17.4434 4.82856 17.7383 4.94923C18.0333 5.0699 18.3013 5.24811 18.5266 5.47345C18.7519 5.6988 18.9301 5.96676 19.0508 6.26171C19.1715 6.55666 19.2322 6.87269 19.2295 7.19136C19.2267 7.51003 19.1605 7.82496 19.0347 8.11777C18.9089 8.41058 18.7261 8.67541 18.4968 8.8968L14.8968 12.4968C14.4468 12.9467 13.8364 13.1995 13.2 13.1995C12.5637 13.1995 11.9533 12.9467 11.5033 12.4968C11.2769 12.2782 10.9738 12.1573 10.6592 12.16C10.3445 12.1627 10.0436 12.2889 9.82107 12.5114C9.59858 12.7339 9.47237 13.0349 9.46964 13.3495C9.46691 13.6642 9.58786 13.9673 9.80645 14.1936C10.7066 15.0935 11.9273 15.599 13.2 15.599C14.4728 15.599 15.6935 15.0935 16.5936 14.1936L20.1936 10.5936C21.068 9.68831 21.5518 8.47582 21.5409 7.21728C21.5299 5.95873 21.0251 4.75483 20.1352 3.86487C19.2452 2.97491 18.0413 2.4701 16.7828 2.45917C15.5242 2.44823 14.3117 2.93204 13.4064 3.8064L11.6064 5.6064C11.4918 5.7171 11.4004 5.84951 11.3375 5.99592C11.2746 6.14232 11.2415 6.29978 11.2401 6.45912C11.2388 6.61845 11.2691 6.77647 11.3295 6.92395C11.3898 7.07142 11.4789 7.2054 11.5916 7.31808C11.7042 7.43075 11.8382 7.51985 11.9857 7.58019C12.1332 7.64052 12.2912 7.67089 12.4505 7.6695C12.6099 7.66812 12.7673 7.63501 12.9137 7.57212C13.0601 7.50923 13.1926 7.41781 13.3032 7.3032L15.1032 5.5032ZM9.10325 11.5032C9.55332 11.0533 10.1637 10.8005 10.8 10.8005C11.4364 10.8005 12.0468 11.0533 12.4968 11.5032C12.6075 11.6178 12.74 11.7092 12.8864 11.7721C13.0328 11.835 13.1902 11.8681 13.3496 11.8695C13.5089 11.8709 13.6669 11.8405 13.8144 11.7802C13.9619 11.7199 14.0959 11.6307 14.2085 11.5181C14.3212 11.4054 14.4103 11.2714 14.4706 11.1239C14.531 10.9765 14.5613 10.8185 14.5599 10.6591C14.5586 10.4998 14.5255 10.3423 14.4626 10.1959C14.3997 10.0495 14.3083 9.9171 14.1936 9.8064C13.2935 8.90654 12.0728 8.40103 10.8 8.40103C9.52726 8.40103 8.30658 8.90654 7.40645 9.8064L3.80645 13.4064C3.348 13.8492 2.98232 14.3788 2.73076 14.9645C2.4792 15.5501 2.34678 16.1799 2.34125 16.8173C2.33571 17.4546 2.45716 18.0867 2.6985 18.6766C2.93985 19.2665 3.29627 19.8024 3.74695 20.2531C4.19764 20.7038 4.73357 21.0602 5.32347 21.3015C5.91337 21.5429 6.54543 21.6643 7.18277 21.6588C7.82012 21.6533 8.44997 21.5208 9.03559 21.2693C9.62121 21.0177 10.1509 20.652 10.5936 20.1936L12.3936 18.3936C12.5083 18.2829 12.5997 18.1505 12.6626 18.0041C12.7255 17.8577 12.7586 17.7002 12.7599 17.5409C12.7613 17.3815 12.731 17.2235 12.6706 17.0761C12.6103 16.9286 12.5212 16.7946 12.4085 16.6819C12.2959 16.5693 12.1619 16.4802 12.0144 16.4198C11.8669 16.3595 11.7089 16.3291 11.5496 16.3305C11.3902 16.3319 11.2328 16.365 11.0864 16.4279C10.94 16.4908 10.8075 16.5822 10.6968 16.6968L8.89685 18.4968C8.67546 18.726 8.41063 18.9089 8.11782 19.0346C7.82501 19.1604 7.51008 19.2266 7.19141 19.2294C6.87274 19.2322 6.55671 19.1714 6.26176 19.0508C5.96681 18.9301 5.69884 18.7519 5.4735 18.5265C5.24816 18.3012 5.06995 18.0332 4.94928 17.7383C4.8286 17.4433 4.76788 17.1273 4.77065 16.8086C4.77342 16.49 4.83962 16.175 4.9654 15.8822C5.09119 15.5894 5.27402 15.3246 5.50325 15.1032L9.10325 11.5032Z" fill="#FB8B04"/>
</svg>
